<?xml version="1.0" standalone="no"?><!DOCTYPE svg PUBLIC "-//W3C//DTD SVG 1.1//EN" "http://www.w3.org/Graphics/SVG/1.1/DTD/svg11.dtd"><svg t="1743600315726" class="icon" viewBox="0 0 1024 1024" version="1.1" xmlns="http://www.w3.org/2000/svg" p-id="3825" xmlns:xlink="http://www.w3.org/1999/xlink" width="200" height="200"><path d="M407.324444 286.208a42.666667 42.666667 0 0 1 38.172445 23.608889l316.984889 634.026667a42.666667 42.666667 0 0 1-38.172445 61.724444H90.339556a42.666667 42.666667 0 0 1-38.172445-61.724444L369.095111 309.816889a42.666667 42.666667 0 0 1 38.229333-23.608889z m247.978667 634.026667L407.324444 424.277333l-247.921777 495.957334z" fill="#595959" p-id="3826"></path><path d="M316.757333 1005.568a42.666667 42.666667 0 0 1-37.660444-62.577778L482.872889 558.08a42.666667 42.666667 0 0 1 75.434667 39.822222l-203.776 384.910222a42.666667 42.666667 0 0 1-37.774223 22.755556z" fill="#595959" p-id="3827"></path><path d="M962.104889 1005.511111h-237.454222a42.666667 42.666667 0 0 1 0-85.333333h161.905777l-115.256888-189.781334-66.104889 117.532445a42.666667 42.666667 0 1 1-74.353778-41.813333l101.888-181.134223a42.666667 42.666667 0 0 1 73.671111-1.251555l192.455111 316.984889a42.666667 42.666667 0 0 1-36.465778 64.796444z" fill="#595959" p-id="3828"></path><path d="M565.475556 652.231111a42.666667 42.666667 0 0 1-10.467556-84.024889 220.558222 220.558222 0 1 0-231.480889-82.261333 42.666667 42.666667 0 1 1-68.266667 51.2 306.176 306.176 0 1 1 321.080889 113.777778 42.780444 42.780444 0 0 1-10.865777 1.308444z" fill="#595959" p-id="3829"></path><path d="M429.966222 1005.511111h-226.417778a42.666667 42.666667 0 0 1 0-85.333333h226.417778a42.666667 42.666667 0 1 1 0 85.333333z" fill="#595959" p-id="3830"></path><path d="M599.836444 756.451556a42.666667 42.666667 0 0 1-38.172444-23.608889l-113.208889-226.417778a42.666667 42.666667 0 0 1 76.344889-38.172445l113.208889 226.417778a42.666667 42.666667 0 0 1-38.115556 61.781334z" fill="#595959" p-id="3831"></path></svg>