<?xml version="1.0" standalone="no"?><!DOCTYPE svg PUBLIC "-//W3C//DTD SVG 1.1//EN" "http://www.w3.org/Graphics/SVG/1.1/DTD/svg11.dtd"><svg t="1743600238884" class="icon" viewBox="0 0 1111 1024" version="1.1" xmlns="http://www.w3.org/2000/svg" p-id="2700" xmlns:xlink="http://www.w3.org/1999/xlink" width="216.9921875" height="200"><path d="M872.122687 1023.981832c-2.290772 0-4.599712-0.066064-6.869014-0.194889H200.553136c-61.264534 0-111.106586-49.842053-111.106586-111.104934V429.872427l-21.360172 15.913187a42.112554 42.112554 0 0 1-25.59488 8.59659c-13.422571 0-25.768298-6.125793-33.871059-16.808356-14.154231-18.661454-10.490977-45.362907 8.168825-59.520442L497.390653 12.449778C508.183874 4.294166 520.998656 0 534.490595 0c13.396146 0 26.534642 4.424642 37.111502 12.458036l480.60139 365.597022c10.428217 8.010271 16.653105 20.570706 16.707608 33.644789 0.034684 23.452752-18.978561 42.523803-42.381765 42.560138-9.248973 0-18.345998-3.015826-25.64608-8.490887l-21.342004-15.898323v130.420423a246.194437 246.194437 0 0 1 95.095954 88.334295 246.16636 246.16636 0 0 1 37.068561 129.467448c-0.024774 129.502132-101.261385 237.393049-230.474487 245.66097l-0.526861 0.034684h-1.725925a122.373817 122.373817 0 0 1-6.855801 0.193237z m-700.527093-110.474022c0.20645 14.31774 11.939433 25.898775 26.205973 25.898774l482.101044-0.001651c-38.730073-44.586654-60.575816-102.581016-60.475068-161.891704 0.232876-135.328985 110.513661-245.429746 245.839343-245.429746h0.404643c9.691602 0.04129 19.38981 0.693673 28.974058 1.942285v-168.479946L533.203996 90.899233 171.597245 365.549125c-0.001652 68.477081-0.006606 540.848536-0.001651 547.958685z m693.76213-297.214083c-88.942084 0.09249-161.226108 72.525158-161.136921 161.465591 0.087535 86.316037 67.657886 157.017826 153.828581 160.961852l12.899014 0.589622c86.332553-2.969581 155.777472-74.211444 155.866659-161.207941v-0.677157c-0.090838-88.839685-72.445881-161.131967-161.293824-161.131967h-0.163509z" p-id="2701"></path><path d="M865.689696 931.786092c-23.404855 0-42.446178-19.041322-42.446177-42.446178v-68.782627h-68.780976c-23.404855 0-42.446178-19.041322-42.446178-42.446178 0-23.406507 19.041322-42.447829 42.446178-42.447829h68.780976v-68.609209c0-23.404855 19.041322-42.444526 42.446177-42.444527s42.446178 19.039671 42.446178 42.444527v68.609209h68.610861c23.406507 0 42.447829 19.041322 42.447829 42.447829 0 23.404855-19.041322 42.446178-42.447829 42.446178h-68.610861v68.782627c-0.004955 23.406507-19.047929 42.446178-42.446178 42.446178z" p-id="2702"></path></svg>